<?xml version="1.0" encoding="utf-8"?>
<!-- Generator: Adobe Illustrator 20.0.0, SVG Export Plug-In . SVG Version: 6.00 Build 0)  -->
<svg version="1.1" id="c_x5F_r" xmlns="http://www.w3.org/2000/svg" xmlns:xlink="http://www.w3.org/1999/xlink" x="0px" y="0px"
	 viewBox="0 0 125.7 197.3" style="enable-background:new 0 0 125.7 197.3;" xml:space="preserve">
<style type="text/css">
	.st0{fill:#676767;}
</style>
<polygon id="c_x5F_top" points="62.8,85.9 87.9,60.8 98.6,50.1 98.6,0 37.8,60.8 "/>
<g id="R">
	<polygon id="r_x5F_top" class="st0" points="125.7,98.6 102.9,75.9 100.7,73.6 100.7,73.6 27.1,0 27,50.1 75.6,98.7 62.9,111.4 
		87.9,136.5 125.7,98.7 125.7,98.7 	"/>
	<polygon id="r_x5F_bottom" class="st0" points="37.8,136.5 37.8,136.5 27.1,147.2 27.1,197.3 62.9,161.5 	"/>
	<polyline id="r_x5F_edge" class="st0" points="62.9,111.4 62.9,111.4 98.7,147.2 98.7,197.3 37.8,136.5 37.8,136.5 37.8,136.5 	"/>
</g>
<polygon id="c_x5F_bottom" points="0,98.7 22.8,121.4 25,123.7 25,123.7 98.6,197.3 98.7,147.2 50.1,98.6 62.8,85.9 37.8,60.8 
	0,98.6 0,98.7 "/>
</svg>
